<?xml version="1.0" encoding="utf-8"?>
<!-- Generator: Adobe Illustrator 21.1.0, SVG Export Plug-In . SVG Version: 6.00 Build 0)  -->
<svg version="1.1" id="Layer_1" xmlns="http://www.w3.org/2000/svg" xmlns:xlink="http://www.w3.org/1999/xlink" x="0px" y="0px"
	 viewBox="0 0 293 37.3" style="enable-background:new 0 0 293 37.3;" xml:space="preserve">
<style type="text/css">
	.st0{fill:#CECCCC;}
	.st1{fill:#EACF0F;}
	.st2{fill:none;stroke:#CECCCC;stroke-width:0.5;stroke-miterlimit:10;}
	.st3{fill:url(#SVGID_1_);}
</style>
<g>
	<path class="st0" d="M3.9,32.1c-0.4,0-0.7-0.1-0.9-0.4c-0.2-0.2-0.4-0.5-0.4-0.7V7.8c0-0.3,0.1-0.5,0.4-0.7
		c0.2-0.2,0.5-0.4,0.9-0.4H15c0.4,0,0.7,0.1,0.9,0.4c0.2,0.2,0.4,0.5,0.4,0.7c0,0.3-0.1,0.5-0.4,0.7c-0.2,0.2-0.5,0.4-0.9,0.4H5.2
		v9.4h7.5c0.4,0,0.7,0.1,0.9,0.4c0.2,0.2,0.4,0.5,0.4,0.7s-0.1,0.5-0.4,0.7c-0.2,0.2-0.5,0.4-0.9,0.4H5.2V31c0,0.3-0.1,0.5-0.4,0.7
		C4.6,32,4.3,32.1,3.9,32.1z"/>
	<path class="st0" d="M42.4,32.1c-0.6,0-1-0.3-1.2-0.8l-2.7-7.8h-8.1l-2.7,7.8c-0.3,0.5-0.7,0.8-1.3,0.8l-0.4,0
		c-0.6-0.3-0.9-0.6-0.9-1.1c0-0.1,2.7-7.9,8.2-23.5C33.6,7,34,6.7,34.5,6.7c0.6,0,1.1,0.3,1.2,0.8c5.3,15.6,7.9,23.4,7.9,23.5
		c0,0.2,0,0.3-0.1,0.5C43.3,31.9,43,32.1,42.4,32.1z M37.8,21.3l-3.3-9.6l-3.4,9.6H37.8z"/>
	<path class="st0" d="M61.2,32.1c-0.4,0-0.7-0.1-0.9-0.4c-0.2-0.2-0.4-0.5-0.4-0.7V19.7L52.6,8.4c-0.1-0.2-0.2-0.3-0.2-0.5
		c0-0.1,0-0.2,0.1-0.4c0-0.2,0.2-0.3,0.4-0.5c0.2-0.2,0.5-0.2,0.7-0.2c0.5,0,0.9,0.2,1.1,0.6l6.3,9.8l6.3-9.8
		c0.3-0.4,0.6-0.6,1.1-0.6c0.3,0,0.5,0.1,0.7,0.2c0.3,0.2,0.5,0.5,0.5,0.8c0,0.2-0.1,0.4-0.2,0.6l-7.2,11.4V31
		c0,0.3-0.1,0.5-0.4,0.7C61.8,32,61.5,32.1,61.2,32.1z"/>
	<path class="st1" d="M100.1,32.1c-0.5,0-0.8-0.2-1.1-0.6L86,12v19c0,0.3-0.1,0.5-0.4,0.7c-0.2,0.2-0.5,0.4-0.9,0.4
		c-0.4,0-0.7-0.1-0.9-0.4c-0.2-0.2-0.4-0.5-0.4-0.7V7.8c0-0.4,0.3-0.8,0.9-1.1l0.4,0c0.5,0,0.9,0.2,1.1,0.6l13,19.5v-19
		c0-0.3,0.1-0.5,0.4-0.7c0.2-0.2,0.5-0.4,0.9-0.4s0.7,0.1,0.9,0.3c0.2,0.2,0.4,0.5,0.4,0.8V31c0,0.5-0.3,0.8-0.9,1.1L100.1,32.1z"/>
	<path class="st0" d="M136.8,32.1c-0.4,0-0.7-0.1-0.9-0.3c-0.2-0.2-0.4-0.5-0.4-0.8V12.9l-6.8,12.8c-0.3,0.4-0.7,0.6-1.2,0.6
		c-0.5,0-0.9-0.3-1.1-0.6L119.8,13v18c0,0.3-0.1,0.5-0.4,0.7c-0.2,0.2-0.5,0.4-0.9,0.4c-0.4,0-0.7-0.1-0.9-0.4
		c-0.2-0.2-0.4-0.5-0.4-0.7V7.8c0-0.2,0.1-0.4,0.3-0.7s0.5-0.4,1-0.4c0.5,0,0.9,0.2,1.1,0.6l7.9,15.2l8-15.1
		c0.2-0.4,0.6-0.7,1.2-0.7c0.5,0,0.8,0.1,1,0.4c0.2,0.3,0.3,0.5,0.3,0.7V31c0,0.3-0.1,0.5-0.4,0.7C137.5,32,137.2,32.1,136.8,32.1z"
		/>
	<path class="st1" d="M169.3,32.1c-0.6,0-1-0.3-1.2-0.8l-2.7-7.8h-8.1l-2.7,7.8c-0.3,0.5-0.7,0.8-1.3,0.8l-0.4,0
		c-0.6-0.3-0.9-0.6-0.9-1.1c0-0.1,2.7-7.9,8.2-23.5c0.3-0.5,0.7-0.8,1.2-0.8c0.6,0,1.1,0.3,1.2,0.8c5.3,15.6,7.9,23.4,7.9,23.5
		c0,0.2,0,0.3-0.1,0.5C170.2,31.9,169.8,32.1,169.3,32.1z M164.6,21.3l-3.3-9.6l-3.4,9.6H164.6z"/>
	<path class="st1" d="M201.1,32.1c-0.5,0-0.8-0.2-1.1-0.6L187,12v19c0,0.3-0.1,0.5-0.4,0.7c-0.2,0.2-0.5,0.4-0.9,0.4
		c-0.4,0-0.7-0.1-0.9-0.4c-0.2-0.2-0.4-0.5-0.4-0.7V7.8c0-0.4,0.3-0.8,0.9-1.1l0.4,0c0.5,0,0.9,0.2,1.1,0.6l13,19.5v-19
		c0-0.3,0.1-0.5,0.4-0.7c0.2-0.2,0.5-0.4,0.9-0.4s0.7,0.1,0.9,0.3c0.2,0.2,0.4,0.5,0.4,0.8V31c0,0.5-0.3,0.8-0.9,1.1L201.1,32.1z"/>
	<path class="st1" d="M228.8,32.1c-3.2,0-6-1.3-8.4-3.8c-2.2-2.6-3.3-5.6-3.3-8.9c0-3.3,1.1-6.3,3.3-8.9c2.4-2.6,5.2-3.8,8.4-3.8
		c3.2,0,6,1.3,8.4,3.8c2.2,2.6,3.3,5.5,3.3,8.9c0,3.3-1.1,6.3-3.3,8.9C234.8,30.9,232,32.1,228.8,32.1z M228.8,29.9
		c2.5,0,4.6-1,6.4-3c1.8-2,2.7-4.5,2.7-7.4S237,14,235.2,12c-1.8-2-3.9-3.1-6.4-3.1c-2.5,0-4.6,1-6.4,3.1c-1.8,2-2.7,4.5-2.7,7.5
		s0.9,5.4,2.7,7.4C224.2,28.9,226.3,29.9,228.8,29.9z"/>
</g>
<ellipse class="st2" cx="271.5" cy="18.8" rx="17.5" ry="6.7"/>
<g>
	<path class="st0" d="M255,17.4c-0.4,0.4-0.6,1.1-0.5,1.7c0.1,0.6,0.5,1.3,1,1.8c0.5,0.5,1.1,1,1.8,1.4c0.6,0.4,1.3,0.8,2,1.1
		c-0.7-0.3-1.5-0.5-2.2-0.9c-0.7-0.3-1.4-0.7-2-1.2c-0.6-0.5-1.2-1.2-1.4-2.1c-0.1-0.4-0.2-0.9-0.1-1.4c0.1-0.5,0.2-0.9,0.5-1.3
		L255,17.4z"/>
</g>
<circle class="st0" cx="254.6" cy="17.1" r="0.9"/>
<ellipse transform="matrix(0.8264 -0.5631 0.5631 0.8264 36.3787 155.6482)" class="st2" cx="270.6" cy="18.8" rx="6.7" ry="17.5"/>
<g>
	<path class="st0" d="M278.8,33.2c0.5,0.1,1.2-0.1,1.7-0.5c0.5-0.4,0.8-1.1,1-1.8c0.1-0.7,0.2-1.5,0.2-2.3c0-0.8-0.1-1.5-0.2-2.3
		c0.2,0.7,0.4,1.5,0.5,2.3c0.1,0.8,0.2,1.6,0.1,2.4c-0.1,0.8-0.3,1.6-0.9,2.3c-0.3,0.3-0.7,0.6-1.1,0.8c-0.4,0.2-0.8,0.3-1.4,0.3
		L278.8,33.2z"/>
</g>
<ellipse transform="matrix(0.8264 -0.5631 0.5631 0.8264 29.3908 162.8068)" class="st0" cx="278.7" cy="33.7" rx="0.9" ry="0.9"/>
<ellipse transform="matrix(0.5303 -0.8478 0.8478 0.5303 110.919 238.4709)" class="st2" cx="270.7" cy="19.1" rx="17.5" ry="6.7"/>
<g>
	<path class="st0" d="M280.3,5.9c-0.1-0.5-0.6-1.1-1.2-1.3c-0.6-0.3-1.3-0.3-2.1-0.1c-0.7,0.2-1.4,0.4-2.1,0.7
		c-0.7,0.3-1.4,0.7-2,1.1c0.6-0.5,1.2-1,1.9-1.4c0.7-0.4,1.4-0.8,2.1-1.1c0.8-0.2,1.6-0.4,2.5-0.1c0.4,0.1,0.9,0.3,1.2,0.7
		c0.4,0.3,0.6,0.7,0.8,1.2L280.3,5.9z"/>
</g>
<ellipse transform="matrix(0.5303 -0.8478 0.8478 0.5303 127.0359 240.7066)" class="st0" cx="280.8" cy="5.7" rx="0.9" ry="0.9"/>
<radialGradient id="SVGID_1_" cx="270.7438" cy="19.0233" r="3.085" gradientUnits="userSpaceOnUse">
	<stop  offset="0" style="stop-color:#ECF31A"/>
	<stop  offset="0.1902" style="stop-color:#F0E018"/>
	<stop  offset="0.4491" style="stop-color:#F4CD16"/>
	<stop  offset="0.7158" style="stop-color:#F6C215"/>
	<stop  offset="1" style="stop-color:#F7BE15"/>
</radialGradient>
<circle class="st3" cx="270.7" cy="19" r="3.1"/>
</svg>
